<svg xmlns="http://www.w3.org/2000/svg" width="621.988" height="452" viewBox="0 0 621.988 452"><g transform="translate(10.488 7.5)"><g transform="translate(98.5 320.5)" fill="none" stroke="#f9f9f9" stroke-width="15"><circle cx="62" cy="62" r="62" stroke="none"/><circle cx="62" cy="62" r="54.5" fill="none"/></g><g transform="translate(370.5 320.5)" fill="none" stroke="#f9f9f9" stroke-width="15"><circle cx="62" cy="62" r="62" stroke="none"/><circle cx="62" cy="62" r="54.5" fill="none"/></g><line x2="97" transform="translate(248 382.5)" fill="none" stroke="#f9f9f9" stroke-linecap="round" stroke-width="15"/><line x2="87" transform="translate(517 382.5)" fill="none" stroke="#f9f9f9" stroke-linecap="round" stroke-width="15"/><line y2="281" transform="translate(604 101.5)" fill="none" stroke="#f9f9f9" stroke-linecap="round" stroke-width="15"/><line x2="479" transform="translate(125 102)" fill="none" stroke="#f9f9f9" stroke-linecap="round" stroke-width="15"/><line x1="125.037" y2="169.5" transform="translate(0 101.5)" fill="none" stroke="#f9f9f9" stroke-linecap="round" stroke-width="15"/><line x1="6" y1="111.5" transform="translate(0.037 271)" fill="none" stroke="#f9f9f9" stroke-linecap="round" stroke-width="15"/><line x1="66.926" transform="translate(6.037 382.5)" fill="none" stroke="#f9f9f9" stroke-linecap="round" stroke-width="15"/><line x2="67" transform="translate(94 155)" fill="none" stroke="#f9f9f9" stroke-linecap="square" stroke-width="15"/><line y2="88" transform="translate(161 155)" fill="none" stroke="#f9f9f9" stroke-width="15"/><line x2="135" transform="translate(26 243)" fill="none" stroke="#f9f9f9" stroke-linecap="square" stroke-width="15"/><g transform="translate(313.5 129.5)" fill="none" stroke="#f9f9f9" stroke-width="15"><circle cx="78.5" cy="78.5" r="78.5" stroke="none"/><circle cx="78.5" cy="78.5" r="71" fill="none"/></g><line y2="80" transform="translate(392 168)" fill="none" stroke="#f9f9f9" stroke-linecap="round" stroke-width="15"/><line y2="80" transform="translate(432 208) rotate(90)" fill="none" stroke="#f9f9f9" stroke-linecap="round" stroke-width="15"/><path d="M775.668,228.873c29.683-62.491,49.212,0,49.212,0" transform="translate(-619.5 -135.5)" fill="none" stroke="#f9f9f9" stroke-linecap="round" stroke-width="15"/><line y2="43" transform="translate(180.774)" fill="none" stroke="#f9f9f9" stroke-linecap="round" stroke-width="15"/><line y2="43" transform="matrix(0.839, 0.545, -0.545, 0.839, 228.799, 15.469)" fill="none" stroke="#f9f9f9" stroke-linecap="round" stroke-width="15"/><line y2="43" transform="matrix(-0.839, 0.545, -0.545, -0.839, 156.168, 51.531)" fill="none" stroke="#f9f9f9" stroke-linecap="round" stroke-width="15"/><line y2="43" transform="translate(144.458 72.5) rotate(90)" fill="none" stroke="#f9f9f9" stroke-linecap="round" stroke-width="15"/><line y2="43" transform="translate(264.089 72.5) rotate(90)" fill="none" stroke="#f9f9f9" stroke-linecap="round" stroke-width="15"/></g></svg>